<svg width="264" height="212" viewBox="0 0 264 212" fill="none" xmlns="http://www.w3.org/2000/svg">
<path d="M150 89.5C150 110.211 133.211 127 112.5 127C91.7893 127 75 110.211 75 89.5C75 68.7893 91.7893 52 112.5 52C133.211 52 150 68.7893 150 89.5Z" fill="#2C2C2E"/>
<path d="M189 122.5C189 143.211 172.211 160 151.5 160C130.789 160 114 143.211 114 122.5C114 101.789 130.789 85 151.5 85C172.211 85 189 101.789 189 122.5Z" fill="#2C2C2E"/>
<path d="M178 106C178 131.405 157.405 152 132 152C106.595 152 86 131.405 86 106C86 80.5949 106.595 60 132 60C157.405 60 178 80.5949 178 106Z" fill="#F9CC2E"/>
<path fill-rule="evenodd" clip-rule="evenodd" d="M148.914 91.5714C150.808 93.181 151.038 96.0209 149.429 97.9145L132.429 117.915C131.579 118.915 130.334 119.494 129.022 119.5C127.709 119.506 126.459 118.939 125.599 117.947L116.599 107.561C114.972 105.683 115.175 102.841 117.053 101.213C118.931 99.5858 121.773 99.789 123.401 101.667L128.967 108.091L142.571 92.0857C144.181 90.192 147.021 89.9618 148.914 91.5714Z" fill="#222222"/>
</svg>
